<svg width="579" height="341" viewBox="0 0 579 341" fill="none" xmlns="http://www.w3.org/2000/svg">
<path d="M233.773 262.854L233.657 262.516H233.3H102.884H102.526L102.41 262.854C98.2255 275.121 93.8796 287.388 89.3726 299.656L89.3689 299.667C85.2235 311.818 81.3937 323.653 77.8793 335.172H0.702948C13.176 299.262 25.0126 266.065 36.213 235.579C47.482 204.905 58.429 176.009 69.0537 148.888C80.0006 121.767 90.6253 96.0995 100.928 71.8851C111.509 47.4493 122.408 23.6543 133.627 0.5L204.967 0.5C215.867 23.6547 226.607 47.4501 237.188 71.8862L237.189 71.8884C247.813 96.1004 258.436 121.766 269.061 148.886L269.063 148.89C280.009 176.01 291.117 204.906 302.385 235.579C313.586 266.065 325.422 299.262 337.895 335.172H258.304C254.786 323.651 250.794 311.814 246.33 299.661C246.329 299.659 246.328 299.658 246.328 299.656L240.052 281.26L233.773 262.854ZM168.073 75.8616L167.566 74.5902L167.134 75.8892C165.528 80.7223 163.116 87.334 159.896 95.7272C156.676 104.123 152.973 113.811 148.787 124.791C144.601 135.769 139.932 147.877 134.78 161.116L134.78 161.115L134.776 161.125C129.946 174.367 124.954 188.253 119.801 202.786L119.565 203.453H120.272H215.428H216.136L215.899 202.786C210.746 188.253 205.755 174.367 200.924 161.125C196.093 147.883 191.422 135.77 186.911 124.785C182.726 113.808 179.024 104.122 175.804 95.7272C172.583 87.3305 170.006 80.7084 168.073 75.8616ZM510.01 283.853L510.428 283.783V283.359V228.625V228.224L510.037 228.137C507.111 227.485 502.742 226.837 496.942 226.191C491.131 225.543 485.799 225.219 480.947 225.219C474.165 225.219 467.702 225.704 461.559 226.676C455.718 227.328 450.51 228.795 445.945 231.084C441.366 233.38 437.754 236.504 435.126 240.458C432.483 244.433 431.178 249.379 431.178 255.266C431.178 266.682 434.927 274.788 442.527 279.427L442.538 279.433L442.549 279.439C450.378 283.692 460.937 285.797 474.184 285.797C481.276 285.797 488.047 285.635 494.496 285.312C500.945 284.988 506.119 284.503 510.01 283.853ZM554.965 102.543L554.971 102.55C563.604 111.527 569.683 122.431 573.205 135.273C576.733 148.139 578.5 162.464 578.5 178.25V328.004C568.239 330.241 554.052 332.793 535.933 335.662L535.924 335.664C517.607 338.886 495.419 340.5 469.354 340.5C452.96 340.5 438.022 339.049 424.538 336.152C411.389 333.257 400.02 328.598 390.42 322.181C380.833 315.449 373.484 306.798 368.37 296.22C363.259 285.649 360.691 272.65 360.691 257.203C360.691 242.416 363.575 229.913 369.318 219.672C375.396 209.409 383.388 201.236 393.298 195.145C403.225 189.044 414.6 184.704 427.429 182.131L427.441 182.128C440.284 179.231 453.61 177.781 467.422 177.781C476.744 177.781 484.932 178.265 491.988 179.23L492 179.231L492.013 179.232C499.403 179.877 505.325 180.842 509.79 182.121L510.428 182.304V181.641V174.859C510.428 162.48 506.688 152.496 499.172 144.959C491.623 137.389 478.572 133.672 460.177 133.672C447.916 133.672 435.816 134.642 423.876 136.584C412.198 138.166 402.049 140.525 393.435 143.664L384.421 86.5697C388.512 85.326 393.511 84.0803 399.419 82.833L399.428 82.831L399.437 82.8287C405.857 81.2194 412.761 79.9311 420.151 78.9645L420.161 78.9631L420.172 78.9613C427.562 77.6725 435.275 76.7056 443.311 76.0609L443.32 76.0602L443.328 76.0592C451.682 75.0926 460.035 74.6094 468.388 74.6094C489.607 74.6094 507.259 77.0279 521.359 81.8481C535.466 86.6708 546.66 93.5737 554.965 102.543Z" stroke="#9B9B9B"/>
</svg>
