<svg width="47" height="46" viewBox="0 0 47 46" fill="none" xmlns="http://www.w3.org/2000/svg">
<path d="M13.2671 16.0546L13.2671 16.0548C14.6771 20.0492 16.9713 23.676 19.9794 26.6659L19.9796 26.6661C22.9791 29.6647 26.6174 31.9516 30.6246 33.3573C31.5554 33.6836 32.6228 33.4117 33.3795 32.6573L35.0518 30.9903C35.0518 30.9903 35.0519 30.9902 35.0519 30.9902C35.1515 30.8906 35.2287 30.771 35.2784 30.6394C35.3282 30.5078 35.3493 30.3672 35.3404 30.2269C35.3315 30.0865 35.2929 29.9496 35.2269 29.8253C35.1609 29.701 35.0692 29.592 34.9578 29.5056L35.0191 29.4266L34.9578 29.5056L31.2303 26.6148C31.1111 26.5225 30.9725 26.4583 30.8248 26.4272C30.6771 26.3961 30.5243 26.3988 30.3778 26.4352L13.2671 16.0546ZM13.2671 16.0546C12.9383 15.1275 13.2124 14.0638 13.9693 13.3093L15.6416 11.6423C15.7415 11.5429 15.8614 11.4657 15.9935 11.416C16.1255 11.3662 16.2667 11.345 16.4076 11.3537C16.5486 11.3624 16.686 11.4009 16.8109 11.4665C16.9357 11.5322 17.0452 11.6235 17.1319 11.7344M13.2671 16.0546L17.1319 11.7344M14.4521 10.1303C14.7075 9.91346 14.9988 9.74173 15.3136 9.62314C15.7009 9.47722 16.1149 9.41508 16.5282 9.44083C16.9414 9.46657 17.3444 9.57962 17.7105 9.77248C18.0766 9.96534 18.3974 10.2336 18.6516 10.5595L21.5497 14.2751C22.1015 14.98 22.2962 15.9003 22.0783 16.7672C22.0783 16.7672 22.0783 16.7672 22.0783 16.7672L21.1939 20.2956L21.1938 20.2956C21.1521 20.4619 21.1542 20.6362 21.2 20.8014C21.2458 20.9666 21.3338 21.1172 21.4554 21.2385C21.4554 21.2385 21.4554 21.2385 21.4554 21.2386M14.4521 10.1303L21.4554 21.2386M14.4521 10.1303V10.1156L14.2816 10.2855L12.6092 11.9509L12.6091 11.9509C11.3904 13.1676 10.8504 14.9893 11.451 16.6919L11.451 16.692C12.9576 20.9575 15.4082 24.8301 18.621 28.0227C21.8239 31.2248 25.7089 33.6671 29.9878 35.1684L29.9878 35.1684C31.6953 35.7669 33.5226 35.2289 34.7414 34.014L36.4137 32.347C37.6566 31.1098 37.5278 29.0647 36.1407 27.9898L32.4132 25.1007C32.4131 25.1007 32.4131 25.1007 32.4131 25.1007C32.0636 24.8296 31.6568 24.6414 31.2235 24.5501C30.7903 24.4589 30.3419 24.467 29.9122 24.574L29.9122 24.574L26.3743 25.4557L26.3743 25.4557C26.2073 25.4974 26.0324 25.4952 25.8665 25.4495C25.7006 25.4038 25.5494 25.316 25.4277 25.1948C25.4277 25.1948 25.4277 25.1948 25.4277 25.1948M14.4521 10.1303L25.4277 25.1948M21.4554 21.2386L25.4277 25.1948M21.4554 21.2386L25.4277 25.1948M17.1319 11.7344L20.0335 15.4518C20.1261 15.5705 20.1904 15.7087 20.2216 15.8558C20.2528 16.0028 20.2501 16.155 20.2137 16.3009L17.1319 11.7344ZM26.84 27.3168L30.3777 26.4352L20.2136 16.301L19.3292 19.8276C19.2067 20.3155 19.213 20.8267 19.3475 21.3114C19.4821 21.7962 19.7403 22.2379 20.0969 22.5935L24.0659 26.5516L24.0659 26.5516C24.4227 26.9072 24.8657 27.1645 25.3518 27.2986C25.838 27.4327 26.3506 27.4389 26.8399 27.3168C26.8399 27.3168 26.8399 27.3168 26.84 27.3168Z" fill="#212EB4" stroke="#212EB4" stroke-width="0.2"/>
<path d="M45.9403 23C45.9403 35.3394 35.8679 45.35 23.4338 45.35C10.9997 45.35 0.927344 35.3394 0.927344 23C0.927344 10.6606 10.9997 0.65 23.4338 0.65C35.8679 0.65 45.9403 10.6606 45.9403 23Z" stroke="#212EB4" stroke-width="1.3"/>
</svg>
