<svg width="35" height="35" viewBox="0 0 35 35" fill="none" xmlns="http://www.w3.org/2000/svg">
    <g clip-path="url(#clip0_198_3696)">
        <path d="M9.83926 12.2081L9.83931 12.2082C10.9037 15.2441 12.6356 18.0005 14.9063 20.2729L14.9066 20.2731C17.1708 22.5521 19.9172 24.2901 22.942 25.3584C23.6353 25.6031 24.4322 25.3997 24.9982 24.8316L26.262 23.5633L9.83926 12.2081ZM9.83926 12.2081C9.59411 11.512 9.79814 10.712 10.3643 10.1437L11.6281 8.87534C11.6282 8.87533 11.6282 8.87531 11.6282 8.8753C11.6282 8.8753 11.6282 8.87529 11.6282 8.87529C11.7012 8.8021 11.7889 8.74534 11.8854 8.70873C11.9819 8.67212 12.0851 8.65651 12.188 8.66292C12.291 8.66933 12.3914 8.69762 12.4827 8.74593C12.574 8.79424 12.654 8.86148 12.7175 8.9432L14.9103 11.7716C14.9103 11.7716 14.9103 11.7716 14.9103 11.7716C14.9781 11.8591 15.0251 11.9609 15.048 12.0694C15.0708 12.1778 15.0688 12.2901 15.0421 12.3977L14.3738 15.0809C14.3738 15.0809 14.3738 15.0809 14.3737 15.0809C14.2802 15.456 14.285 15.8491 14.3877 16.2218C14.4905 16.5945 14.6877 16.9342 14.9602 17.2078L17.9596 20.2193L17.9596 20.2194M9.83926 12.2081L17.9596 20.2194M17.9596 20.2194C18.2322 20.4928 18.5708 20.6908 18.9423 20.794C19.3138 20.8972 19.7057 20.902 20.0796 20.8081L22.7532 20.1373L17.9596 20.2194ZM26.2548 22.3901L26.1932 22.469L23.3763 20.2695C23.2891 20.2015 23.1878 20.1543 23.0798 20.1314C22.972 20.1085 22.8603 20.1105 22.7533 20.1372L26.2548 22.3901ZM26.2548 22.3901L26.1932 22.469C26.2747 22.5326 26.3418 22.6128 26.3901 22.7045C26.4384 22.7961 26.4667 22.897 26.4732 23.0005C26.4797 23.104 26.4643 23.2077 26.4278 23.3047C26.3914 23.4017 26.3349 23.4898 26.2621 23.5631L26.2548 22.3901ZM10.7362 7.65637V7.63832L10.5654 7.80956L9.30149 9.0767L9.3014 9.07679C8.37465 10.0082 7.96344 11.4036 8.42057 12.7085L8.42058 12.7085C9.56031 15.9573 11.4142 18.907 13.8448 21.3386C16.2679 23.7776 19.207 25.6379 22.4442 26.7814L22.4442 26.7815C23.7448 27.2404 25.1356 26.8275 26.0624 25.8973L27.3262 24.6289L27.3263 24.6288M10.7362 7.65637L27.3263 24.6288M10.7362 7.65637C10.9213 7.50547 11.1299 7.38501 11.3539 7.30001C11.65 7.18774 11.9664 7.13992 12.2822 7.15973C12.5981 7.17955 12.9061 7.26653 13.1858 7.41491C13.4656 7.56329 13.7107 7.76967 13.9049 8.02032L16.095 10.8474L10.7362 7.65637ZM27.3263 24.6288C28.2755 23.6775 28.1773 22.1049 27.1176 21.2782L24.3006 19.0801C24.3006 19.08 24.3006 19.08 24.3006 19.08C24.0335 18.8715 23.7227 18.7266 23.3915 18.6564C23.0604 18.5862 22.7177 18.5925 22.3893 18.6748L22.3893 18.6748L19.7156 19.3456L19.7156 19.3457C19.5936 19.3763 19.4658 19.3748 19.3445 19.3411C19.2233 19.3075 19.1128 19.2429 19.0238 19.1536L16.0218 16.1434L27.3263 24.6288ZM15.8304 15.4483L15.8304 15.4484C15.7998 15.571 15.8013 15.6995 15.8349 15.8213C15.8685 15.9431 15.9328 16.054 16.0218 16.1434L15.8304 15.4483ZM15.8304 15.4483L16.4988 12.7637C16.4988 12.7637 16.4988 12.7637 16.4988 12.7637M15.8304 15.4483L16.4988 12.7637M16.4988 12.7637C16.6651 12.0972 16.5166 11.3896 16.0951 10.8475L16.4988 12.7637Z" fill="#212EB4" stroke="#212EB4" stroke-width="0.2"/>
    </g>
    <circle cx="17.5" cy="17.5" r="16.85" stroke="#212EB4" stroke-width="1.3"/>
    <defs>
        <clipPath id="clip0_198_3696">
            <rect width="25.1087" height="25.1087" fill="white" transform="translate(3.56738 4.56519)"/>
        </clipPath>
    </defs>
</svg>
