<svg width="90" height="80" viewBox="0 0 90 80" fill="none" xmlns="http://www.w3.org/2000/svg">
<path d="M48.0072 39.9447C48.0072 52.8539 45.8629 62.7755 41.5742 69.7095C37.3496 76.5698 31.4927 80 24.0036 80C16.5145 80 10.6256 76.5698 6.33695 69.7095C2.11232 62.7755 0 52.8539 0 39.9447C0 33.527 0.544082 27.8469 1.63224 22.9046C2.78442 17.9622 4.41666 13.7944 6.52898 10.4011C8.6413 7.00784 11.1697 4.426 14.1141 2.6556C17.0586 0.8852 20.3551 0 24.0036 0C31.4927 0 37.3496 3.46704 41.5742 10.4011C45.8629 17.2614 48.0072 27.1093 48.0072 39.9447ZM33.413 39.9447C33.413 36.1088 33.253 32.6418 32.9329 29.5436C32.6129 26.3716 32.1008 23.6422 31.3967 21.3555C30.6926 19.0687 29.7325 17.2983 28.5163 16.0443C27.3001 14.7902 25.7959 14.1632 24.0036 14.1632C22.2113 14.1632 20.7071 14.7902 19.4909 16.0443C18.3387 17.2983 17.3786 19.0687 16.6105 21.3555C15.9064 23.6422 15.3943 26.3716 15.0743 29.5436C14.7542 32.6418 14.5942 36.1088 14.5942 39.9447C14.5942 43.7805 14.7542 47.2845 15.0743 50.4564C15.3943 53.6284 15.9064 56.3578 16.6105 58.6445C17.3786 60.9313 18.3387 62.7017 19.4909 63.9557C20.7071 65.2098 22.2113 65.8368 24.0036 65.8368C25.7959 65.8368 27.3001 65.2098 28.5163 63.9557C29.7325 62.7017 30.6926 60.9313 31.3967 58.6445C32.1008 56.3578 32.6129 53.6284 32.9329 50.4564C33.253 47.2845 33.413 43.7805 33.413 39.9447Z" fill="#212EB4"/>
<path d="M58.0272 17.704C59.8835 16.8188 61.8038 15.823 63.7881 14.7165C65.8364 13.5362 67.8207 12.2822 69.741 10.9544C71.6612 9.55279 73.4855 8.11434 75.2138 6.639C77.006 5.08991 78.6063 3.46704 80.0145 1.7704H90V78.4509H75.6939V23.2365C73.7736 24.7118 71.6292 26.0765 69.2609 27.3306C66.8925 28.5108 64.5882 29.5436 62.3479 30.4288L58.0272 17.704Z" fill="#212EB4"/>
</svg>
