<svg width="47" height="46" viewBox="0 0 47 46" fill="none" xmlns="http://www.w3.org/2000/svg">
    <path d="M45.6629 23C45.6629 35.3394 35.5906 45.35 23.1565 45.35C10.7223 45.35 0.65 35.3394 0.65 23C0.65 10.6606 10.7223 0.65 23.1565 0.65C35.5906 0.65 45.6629 10.6606 45.6629 23Z" stroke="#212EB4" stroke-width="1.3"/>
    <path d="M20.204 16.6907C21.3642 15.069 19.0311 9.93335 15.4056 9.93335C11.7802 9.93335 8.27801 15.5964 10.7779 21.4209C13.6783 28.1783 20.6808 34.26 25.0314 34.9357C29.3819 35.6115 34.2579 33.5842 34.983 30.8813C35.7081 28.1783 31.5572 26.2417 29.3819 26.2417C27.2066 26.2417 27.2066 28.854 25.0314 28.854C22.8561 28.854 16.5786 22.0966 16.5786 20.0694C16.5786 18.0422 19.0439 18.3125 20.204 16.6907Z" stroke="#212EB4" stroke-width="2" stroke-linejoin="round"/>
</svg>