<svg width="234" height="138" viewBox="0 0 234 138" fill="none" xmlns="http://www.w3.org/2000/svg">
<path opacity="0.5" d="M94.1585 105.872L94.112 105.735H93.9679H41.4393H41.2952L41.2487 105.872C39.5631 110.813 37.8126 115.754 35.9974 120.695L35.9958 120.699C34.3261 125.593 32.7836 130.36 31.368 135H0.283126C5.30698 120.536 10.0745 107.165 14.5858 94.8859C19.1247 82.5314 23.5339 70.8923 27.8133 59.9688C32.2225 49.0449 36.502 38.7063 40.6517 28.9532C44.9133 19.1112 49.3035 9.52724 53.8221 0.201389L82.5562 0.201389C86.9464 9.52759 91.2724 19.1118 95.5341 28.9542L95.5345 28.9551C99.8134 38.7071 104.092 49.0447 108.372 59.9678L108.372 59.9697C112.781 70.8929 117.255 82.5316 121.794 94.8859C126.305 107.165 131.073 120.536 136.097 135H104.039C102.622 130.359 101.014 125.592 99.2161 120.697C99.2158 120.696 99.2156 120.695 99.2153 120.695L96.6877 113.285L94.1585 105.872ZM67.6961 30.5554L67.4918 30.0433L67.3179 30.5665C66.6709 32.5132 65.6993 35.1762 64.4027 38.5568C63.1057 41.9386 61.6141 45.8406 59.9279 50.2629C58.242 54.6845 56.3615 59.5615 54.2864 64.8937L54.285 64.8978C52.3392 70.231 50.3287 75.8243 48.2533 81.6777L48.158 81.9464H48.4431H86.7695H87.0546L86.9594 81.6777C84.884 75.8243 82.8734 70.231 80.9277 64.8978C78.9817 59.564 77.1004 54.6848 75.2837 50.2604C73.598 45.8392 72.1067 41.938 70.8099 38.5568C69.5127 35.1748 68.4748 32.5075 67.6961 30.5554ZM205.421 114.329L205.589 114.301V114.131V92.0851V91.9236L205.431 91.8885C204.253 91.6259 202.493 91.3649 200.157 91.1045C197.816 90.8438 195.669 90.7131 193.715 90.7131C190.983 90.7131 188.38 90.9087 185.906 91.3002C183.553 91.5628 181.456 92.1536 179.617 93.0756C177.772 94.0004 176.318 95.2586 175.259 96.851C174.195 98.4521 173.669 100.444 173.669 102.815C173.669 107.414 175.179 110.678 178.24 112.547L178.24 112.547L178.249 112.552C181.402 114.265 185.655 115.113 190.991 115.113C193.847 115.113 196.574 115.048 199.172 114.917C201.77 114.787 203.853 114.591 205.421 114.329ZM223.528 41.302L223.53 41.3047C227.007 44.9206 229.456 49.3125 230.874 54.4849C232.295 59.6673 233.007 65.4369 233.007 71.7951V132.113C228.874 133.014 223.16 134.042 215.862 135.197L215.858 135.198C208.481 136.496 199.544 137.146 189.045 137.146C182.442 137.146 176.426 136.562 170.995 135.395C165.699 134.229 161.119 132.352 157.253 129.767C153.391 127.056 150.431 123.571 148.371 119.311C146.312 115.053 145.278 109.817 145.278 103.596C145.278 97.6397 146.44 92.6038 148.753 88.4789C151.201 84.3452 154.42 81.0532 158.412 78.6C162.41 76.1426 166.992 74.3947 172.159 73.3583L172.164 73.3573C177.337 72.1901 182.704 71.6063 188.267 71.6063C192.022 71.6063 195.32 71.8011 198.162 72.1898L198.162 72.19L198.172 72.1909C201.149 72.4504 203.534 72.8391 205.332 73.3544L205.589 73.428V73.1608V70.4295C205.589 65.4435 204.083 61.4221 201.056 58.3864C198.015 55.3371 192.758 53.8401 185.349 53.8401C180.411 53.8401 175.537 54.231 170.728 55.0128C166.024 55.6504 161.937 56.6004 158.467 57.8648L154.836 34.8683C156.484 34.3674 158.497 33.8657 160.877 33.3633L160.877 33.3634L160.885 33.3616C163.47 32.7134 166.251 32.1945 169.227 31.8053L169.236 31.8039C172.212 31.2847 175.319 30.8953 178.556 30.6356L178.556 30.6358L178.563 30.635C181.927 30.2456 185.292 30.051 188.656 30.051C197.203 30.051 204.313 31.0251 209.992 32.9666C215.674 34.9091 220.182 37.6894 223.528 41.302Z" stroke="#9B9B9B" stroke-width="0.402778"/>
</svg>
